<?xml version="1.0" encoding="UTF-8" standalone="no"?>
<!-- Created with Inkscape (http://www.inkscape.org/) -->

<svg
   width="81.968636mm"
   height="53.26342mm"
   viewBox="0 0 81.968636 53.26342"
   version="1.1"
   id="svg1"
   inkscape:version="1.3 (0e150ed6c4, 2023-07-21)"
   sodipodi:docname="HireBen.svg"
   xmlns:inkscape="http://www.inkscape.org/namespaces/inkscape"
   xmlns:sodipodi="http://sodipodi.sourceforge.net/DTD/sodipodi-0.dtd"
   xmlns="http://www.w3.org/2000/svg"
   xmlns:svg="http://www.w3.org/2000/svg">
  <sodipodi:namedview
     id="namedview1"
     pagecolor="#000000"
     bordercolor="#ffffff"
     borderopacity="1"
     inkscape:showpageshadow="0"
     inkscape:pageopacity="0"
     inkscape:pagecheckerboard="1"
     inkscape:deskcolor="#505050"
     inkscape:document-units="mm"
     inkscape:current-layer="layer1"
     showgrid="false" />
  <defs
     id="defs1" />
  <g
     inkscape:groupmode="layer"
     id="layer4"
     inkscape:label="Workbench2"
     style="display:inline"
     transform="translate(-107.51569,-78.368288)">
    <g
       id="g22">
      <rect
         style="display:inline;fill:#000000;stroke-width:0.264583"
         id="rect22"
         width="77.962494"
         height="47.891251"
         x="109.51875"
         y="81.054375" />
      <path
         id="path22"
         style="display:inline;fill:#ffffff;stroke-width:0.239714"
         d="m 110.51601,78.368292 c -0.39404,-1.1e-5 -0.78422,0.0776 -1.14825,0.22841 -0.36407,0.150659 -0.69491,0.371564 -0.97358,0.650089 -0.27848,0.278536 -0.49938,0.609184 -0.65009,0.973068 -0.15081,0.364033 -0.22843,0.754215 -0.22841,1.14825 v 47.263781 c -2e-5,0.39404 0.0776,0.78422 0.22841,1.14825 0.15071,0.36389 0.37161,0.69453 0.65009,0.97307 0.27867,0.27853 0.60951,0.49943 0.97358,0.65009 0.36403,0.1508 0.75421,0.22842 1.14825,0.22841 h 37.21633 0.093 36.01744 0.26252 2.37918 c 0.19701,0 0.39319,-0.0196 0.58549,-0.0579 0.19231,-0.0383 0.38075,-0.0951 0.56276,-0.17053 0.18194,-0.0754 0.35535,-0.16811 0.51831,-0.27699 0.16297,-0.10887 0.31549,-0.23387 0.45476,-0.3731 0.13926,-0.13935 0.26423,-0.2917 0.3731,-0.45475 0.10887,-0.16306 0.20166,-0.33681 0.27699,-0.51883 0.0754,-0.18194 0.13228,-0.37054 0.17053,-0.56276 0.0382,-0.19222 0.0578,-0.38805 0.0579,-0.58498 V 81.368109 c -3e-5,-0.19693 -0.0196,-0.392762 -0.0579,-0.584977 -0.0383,-0.192216 -0.0952,-0.38082 -0.17053,-0.562757 -0.0753,-0.182031 -0.16812,-0.35578 -0.27699,-0.518831 -0.10887,-0.163051 -0.23384,-0.315409 -0.3731,-0.454753 -0.13927,-0.139232 -0.29179,-0.264231 -0.45476,-0.373103 -0.16296,-0.108874 -0.33637,-0.201627 -0.51831,-0.276986 -0.18201,-0.0754 -0.37045,-0.132279 -0.56276,-0.170532 -0.1923,-0.03825 -0.38848,-0.05788 -0.58549,-0.05788 h -2.37918 -0.26252 -36.01744 -0.093 z m 39.64668,3.81062 h 33.68011 0.26252 1.96577 v 45.642178 h -1.96577 -0.26252 -33.68011 z m -26.9658,4.51497 v 14.634768 h 14.51074 V 86.693882 h 7.44141 v 36.115628 h -7.44141 v -15.47813 h -14.51074 v 15.47813 h -7.44141 V 94.135288 c 3e-5,-0.780897 0.12298,-1.556935 0.36432,-2.299601 0.24126,-0.742587 0.59789,-1.442589 1.05678,-2.074292 0.45902,-0.631791 1.01462,-1.1874 1.64642,-1.646411 0.6317,-0.458901 1.3317,-0.815528 2.07429,-1.056783 0.74266,-0.241347 1.5187,-0.364292 2.2996,-0.364319 z m 31.66473,0 v 36.115628 h 14.03946 c 0.51262,-0.004 1.01027,-0.0222 1.49345,-0.0538 0.48314,-0.0315 0.95188,-0.0765 1.40559,-0.13539 0.45372,-0.0589 0.89246,-0.13177 1.31672,-0.21807 0.42426,-0.0863 0.83406,-0.18604 1.22887,-0.29973 0.39477,-0.11368 0.77462,-0.24133 1.13998,-0.3824 0.36535,-0.14108 0.71623,-0.29559 1.05213,-0.46406 0.3359,-0.16846 0.65681,-0.35088 0.96325,-0.54673 0.30644,-0.19586 0.59841,-0.40515 0.8754,-0.62839 0.27698,-0.22324 0.5364,-0.45995 0.77876,-0.70951 0.24236,-0.2496 0.46767,-0.51212 0.67541,-0.78807 0.20774,-0.27595 0.39791,-0.56482 0.57103,-0.86713 0.17311,-0.30231 0.32917,-0.61805 0.46767,-0.94671 0.13849,-0.32867 0.25941,-0.67025 0.36328,-1.02526 0.10388,-0.35502 0.19069,-0.72347 0.25994,-1.10485 0.0692,-0.38137 0.12143,-0.77618 0.15606,-1.1839 0.0346,-0.40773 0.0517,-0.82838 0.0517,-1.26246 0,-0.25425 -0.009,-0.50384 -0.0253,-0.74827 -0.0168,-0.24443 -0.0419,-0.48369 -0.0754,-0.71831 -0.0336,-0.23461 -0.0757,-0.46457 -0.12609,-0.68936 -0.0504,-0.22479 -0.10904,-0.44442 -0.17622,-0.65939 -0.0672,-0.21497 -0.14289,-0.4253 -0.22686,-0.63045 -0.084,-0.20516 -0.17622,-0.40515 -0.27699,-0.60048 -0.10077,-0.19534 -0.21009,-0.38551 -0.32762,-0.57103 -0.11757,-0.18551 -0.2434,-0.36638 -0.37776,-0.54208 -0.13229,-0.1757 -0.27078,-0.34391 -0.41548,-0.50488 -0.14469,-0.16097 -0.29559,-0.31471 -0.45268,-0.46096 -0.1571,-0.14624 -0.3204,-0.28499 -0.4899,-0.41651 -0.1695,-0.13151 -0.34519,-0.2558 -0.5271,-0.37258 -0.1819,-0.11679 -0.37,-0.22609 -0.5643,-0.32815 -0.19431,-0.10206 -0.39481,-0.19689 -0.60152,-0.28422 -0.2067,-0.0873 -0.41961,-0.16717 -0.63872,-0.23978 -0.2191,-0.0726 -0.44442,-0.13798 -0.67592,-0.19585 0.20256,-0.0786 0.39972,-0.16252 0.59117,-0.25218 0.19146,-0.0897 0.37724,-0.18501 0.55759,-0.28577 0.18035,-0.10077 0.35528,-0.20697 0.52452,-0.31885 0.16924,-0.11188 0.33279,-0.22944 0.49092,-0.35243 0.15814,-0.12299 0.31084,-0.25141 0.45786,-0.38551 0.14702,-0.1341 0.28835,-0.27388 0.42426,-0.41909 0.13591,-0.14521 0.26639,-0.29585 0.39119,-0.45217 0.1248,-0.15632 0.24392,-0.31833 0.3576,-0.48576 0.11369,-0.1695 0.2204,-0.34236 0.31988,-0.51832 0.0995,-0.17595 0.19172,-0.35501 0.27699,-0.53743 0.0853,-0.18242 0.16355,-0.368196 0.23461,-0.557073 0.071,-0.188878 0.13487,-0.380858 0.19172,-0.576192 0.0568,-0.195337 0.10671,-0.394033 0.14934,-0.59583 0.0426,-0.201793 0.078,-0.406693 0.10645,-0.614949 0.0284,-0.208256 0.0499,-0.419872 0.0641,-0.634587 0.0142,-0.214712 0.0212,-0.432532 0.0212,-0.653707 0,-0.405136 -0.0178,-0.798144 -0.0532,-1.178739 -0.0354,-0.380595 -0.0884,-0.748792 -0.15916,-1.104842 -0.0708,-0.35605 -0.15942,-0.699957 -0.26562,-1.031462 -0.10619,-0.331501 -0.22996,-0.650605 -0.37155,-0.957564 -0.14159,-0.306959 -0.30102,-0.601771 -0.47801,-0.884184 -0.17699,-0.282409 -0.37155,-0.55242 -0.58394,-0.810286 -0.21239,-0.257866 -0.44261,-0.503587 -0.6904,-0.736906 -0.24779,-0.233319 -0.51315,-0.454237 -0.79633,-0.663009 -0.28319,-0.210838 -0.58291,-0.408248 -0.89917,-0.592728 -0.31626,-0.184484 -0.64906,-0.356052 -0.99839,-0.514181 -0.34933,-0.158129 -0.7152,-0.302824 -1.09761,-0.434599 -0.3824,-0.131775 -0.78135,-0.25063 -1.19682,-0.35605 -0.41548,-0.105421 -0.8475,-0.197404 -1.29605,-0.276469 -0.44855,-0.07907 -0.91364,-0.145211 -1.39526,-0.197921 -0.48163,-0.05271 -0.97979,-0.09198 -1.49449,-0.118339 -0.51466,-0.02635 -1.04593,-0.03979 -1.5937,-0.03979 z m 7.44141,6.027539 h 5.20898 c 0.25632,0 0.50411,0.0057 0.74311,0.01705 0.239,0.01137 0.46922,0.02842 0.69091,0.05116 0.2217,0.02274 0.43486,0.05116 0.63924,0.08527 0.20438,0.03411 0.39998,0.0739 0.58705,0.119373 0.18707,0.04547 0.36561,0.09663 0.53536,0.153479 0.16976,0.05684 0.33073,0.119373 0.48318,0.187585 0.15244,0.06821 0.29636,0.142111 0.4315,0.221692 0.13513,0.07958 0.26148,0.164852 0.3793,0.255798 0.11989,0.08888 0.23203,0.185002 0.33693,0.288355 0.10491,0.103353 0.20257,0.21394 0.29249,0.331763 0.0899,0.117819 0.17208,0.242878 0.24701,0.375171 0.0749,0.132289 0.14263,0.271817 0.20258,0.418579 0.0599,0.146758 0.11213,0.300756 0.15709,0.461987 0.045,0.16123 0.0827,0.329699 0.11266,0.505395 0.03,0.1757 0.0522,0.358636 0.0672,0.548804 0.015,0.190168 0.0227,0.387575 0.0227,0.592212 0,0.182935 -0.008,0.360508 -0.0222,0.532267 -0.0147,0.17176 -0.0363,0.337576 -0.0656,0.498161 -0.0293,0.160585 -0.0661,0.315678 -0.11007,0.465088 -0.044,0.14941 -0.0953,0.293264 -0.15399,0.431498 -0.0587,0.138235 -0.12461,0.270849 -0.19792,0.397909 -0.0733,0.127059 -0.15387,0.248422 -0.24185,0.364323 -0.088,0.11588 -0.18364,0.22653 -0.28629,0.33124 -0.10264,0.10471 -0.21239,0.20361 -0.32969,0.29714 -0.11731,0.0935 -0.24217,0.18171 -0.37414,0.26407 -0.13197,0.0824 -0.27094,0.15877 -0.41754,0.22996 -0.14664,0.0712 -0.3007,0.13688 -0.46199,0.19688 -0.1613,0.06 -0.32996,0.11447 -0.50591,0.1633 -0.17596,0.0488 -0.35922,0.0921 -0.54984,0.12971 -0.19062,0.0377 -0.38848,0.0696 -0.59376,0.0961 -0.20529,0.0265 -0.41826,0.0477 -0.63821,0.063 -0.21995,0.0153 -0.447,0.0248 -0.68161,0.0289 h -5.50664 z m 0,14.361919 h 6.82129 c 0.21394,0.003 0.4211,0.0126 0.62167,0.0284 0.20056,0.0158 0.39468,0.0381 0.58187,0.0667 0.1872,0.0285 0.36775,0.0631 0.54157,0.10439 0.17383,0.0413 0.34081,0.0891 0.50126,0.14314 0.16046,0.054 0.31439,0.11414 0.46147,0.18087 0.14709,0.0667 0.28745,0.14017 0.42117,0.21962 0.13371,0.0795 0.26051,0.16517 0.38085,0.25735 0.12034,0.0922 0.2341,0.19069 0.34107,0.29559 0.10697,0.1049 0.20715,0.2162 0.30075,0.33383 0.0936,0.11763 0.18074,0.24172 0.26097,0.37207 0.0802,0.13036 0.1538,0.26672 0.22066,0.4098 0.0668,0.14307 0.12686,0.29274 0.18035,0.44855 0.0535,0.1558 0.10044,0.31774 0.14056,0.48627 0.0401,0.16853 0.0735,0.34378 0.10025,0.52503 0.0267,0.18126 0.0466,0.36878 0.0599,0.56276 0.0134,0.19398 0.0202,0.39429 0.0202,0.601 0,0.18397 -0.008,0.36328 -0.0233,0.53743 -0.0155,0.17415 -0.0388,0.34313 -0.0698,0.50747 -0.031,0.16433 -0.0698,0.32349 -0.11627,0.478 -0.0465,0.15451 -0.10077,0.30438 -0.16278,0.44907 -0.062,0.14469 -0.13178,0.28422 -0.20929,0.4191 -0.0775,0.13487 -0.16278,0.2651 -0.2558,0.39015 -0.093,0.12506 -0.19379,0.24495 -0.30231,0.36019 -0.10852,0.11524 -0.22479,0.22582 -0.34881,0.33124 -0.12196,0.10336 -0.24986,0.19999 -0.38396,0.29043 -0.1341,0.0904 -0.2744,0.17466 -0.42064,0.25218 -0.14625,0.0775 -0.29844,0.14882 -0.45682,0.21342 -0.15839,0.0646 -0.32298,0.12247 -0.49351,0.17415 -0.17054,0.0517 -0.34701,0.0971 -0.52969,0.13591 -0.18267,0.0388 -0.37155,0.0708 -0.56637,0.0966 -0.19482,0.0258 -0.39558,0.0455 -0.60255,0.0584 -0.20696,0.0129 -0.42013,0.0191 -0.63924,0.0191 h -6.3748 z"
         inkscape:label="partial" />
    </g>
  </g>
</svg>
