<?xml version="1.0" encoding="UTF-8" standalone="no"?>
<!-- Created with Inkscape (http://www.inkscape.org/) -->

<svg
   width="197.93417mm"
   height="53.26342mm"
   viewBox="0 0 197.93417 53.26342"
   version="1.1"
   id="svg1"
   inkscape:version="1.3 (0e150ed6c4, 2023-07-21)"
   sodipodi:docname="HireBen.svg"
   xmlns:inkscape="http://www.inkscape.org/namespaces/inkscape"
   xmlns:sodipodi="http://sodipodi.sourceforge.net/DTD/sodipodi-0.dtd"
   xmlns="http://www.w3.org/2000/svg"
   xmlns:svg="http://www.w3.org/2000/svg">
  <sodipodi:namedview
     id="namedview1"
     pagecolor="#000000"
     bordercolor="#ffffff"
     borderopacity="1"
     inkscape:showpageshadow="0"
     inkscape:pageopacity="0"
     inkscape:pagecheckerboard="1"
     inkscape:deskcolor="#505050"
     inkscape:document-units="mm"
     inkscape:current-layer="layer1"
     showgrid="false" />
  <defs
     id="defs1" />
  <g
     inkscape:label="Workbench1"
     inkscape:groupmode="layer"
     id="layer1"
     style="display:inline"
     transform="translate(-91.715917,-78.368288)">
    <path
       id="rect10"
       style="display:inline;fill:#ffffff;stroke-width:0.239714"
       d="m 94.71625,78.36829 a 3,3 0 0 0 -3.00034,2.99982 v 47.26378 a 3,3 0 0 0 3.00034,2.99982 h 191.93402 a 3,3 0 0 0 2.99982,-2.99982 V 81.36811 a 3,3 0 0 0 -2.99982,-2.99982 z m 99.69676,3.81062 h 91.82385 v 45.64218 h -91.82385 z m -55.06744,3.15071 c 1.22369,0 2.19935,0.34727 2.92695,1.0418 0.7276,0.69453 1.09141,1.57924 1.09141,2.6541 0,1.09141 -0.37208,1.98438 -1.11622,2.67891 -0.7276,0.69453 -1.69499,1.0418 -2.90214,1.0418 -1.20716,0 -2.18282,-0.34727 -2.92696,-1.0418 -0.7276,-0.69453 -1.0914,-1.5875 -1.0914,-2.67891 0,-1.07486 0.35553,-1.95957 1.0666,-2.6541 0.7276,-0.69453 1.71153,-1.0418 2.95176,-1.0418 z m -31.94844,1.36426 v 14.63477 h 14.51074 V 86.69388 h 7.44141 v 36.11563 h -7.44141 v -15.47813 h -14.51074 v 15.47813 H 99.95572 V 94.13529 a 7.441406,7.441406 0 0 1 7.44141,-7.44141 z m 91.71481,0 v 36.11563 h 14.03946 c 4.10103,-0.0331 7.2595,-0.94258 9.47539,-2.72852 2.21587,-1.78593 3.32383,-4.41523 3.32383,-7.88789 0,-2.03398 -0.53744,-3.75378 -1.61231,-5.15937 -1.05833,-1.4056 -2.51355,-2.33991 -4.36562,-2.80293 1.62057,-0.62839 2.88561,-1.61231 3.79511,-2.95176 0.90951,-1.35599 1.36426,-2.91869 1.36426,-4.68809 0,-3.24114 -1.13275,-5.69681 -3.39824,-7.36699 -2.26549,-1.68671 -5.58933,-2.53008 -9.97149,-2.53008 z m 7.44141,6.02754 h 5.20898 c 2.05053,0 3.54708,0.36381 4.48965,1.09141 0.95911,0.71107 1.43867,1.88516 1.43867,3.52226 0,2.92696 -1.87689,4.42352 -5.63066,4.48965 h -5.50664 z m -44.75954,2.75332 c 0.79374,0 1.53789,0.10749 2.23242,0.32246 l -0.0992,6.89571 c -0.97565,-0.13234 -1.83555,-0.19844 -2.57969,-0.19844 -2.71194,0 -4.48967,0.91777 -5.333,2.75332 v 17.56172 h -7.16856 V 95.97084 h 6.77168 l 0.19844,3.1998 c 1.43867,-2.46392 3.43132,-3.6959 5.97793,-3.6959 z m 16.66875,0 c 3.67106,0 6.55673,1.15756 8.65683,3.47266 2.11667,2.3151 3.175,5.59759 3.175,9.84746 v 2.92695 h -17.09043 c 0.23151,1.75287 0.92604,3.15847 2.0836,4.2168 1.17409,1.05833 2.6541,1.5875 4.44004,1.5875 2.76155,0 4.91959,-1.00046 6.47402,-3.00137 l 3.52227,3.94395 c -1.07487,1.52135 -2.53008,2.71198 -4.36563,3.57187 -1.83554,0.84336 -3.86953,1.26504 -6.10195,1.26504 -3.93567,0 -7.14375,-1.20717 -9.62422,-3.62148 -2.46393,-2.41433 -3.6959,-5.63067 -3.6959,-9.64903 v -0.69453 c 0,-2.69541 0.5209,-5.1015 1.5627,-7.21816 1.04176,-2.1332 2.51354,-3.77032 4.41523,-4.91133 1.91822,-1.15755 4.10105,-1.73633 6.54844,-1.73633 z m 64.15681,0 c -2.44739,0 -4.63022,0.57878 -6.54844,1.73633 -1.9017,1.14101 -3.37344,2.77813 -4.41524,4.91133 -1.04179,2.11666 -1.56269,4.52273 -1.56269,7.21816 v 0.69453 c 0,4.01836 1.23198,7.2347 3.6959,9.64903 2.48047,2.41431 5.68855,3.62148 9.62422,3.62148 2.23242,0 4.2664,-0.42168 6.10195,-1.26504 1.83554,-0.85989 3.29076,-2.05052 4.36562,-3.57187 l -3.52226,-3.94395 c -1.55444,2.00091 -3.71244,3.00137 -6.47403,3.00137 -1.78592,0 -3.26594,-0.52917 -4.44003,-1.5875 -1.15755,-1.05833 -1.85209,-2.46393 -2.0836,-4.2168 h 17.09043 v -2.92695 c 0,-4.24987 -1.05834,-7.53236 -3.175,-9.84746 -2.10013,-2.3151 -4.98575,-3.47266 -8.65683,-3.47266 z m 30.43535,0 c -3.2246,0 -5.79603,1.1989 -7.71426,3.59668 l -0.22324,-3.10058 h -6.74688 v 26.83867 h 7.16856 v -18.92598 c 1.00873,-1.71979 2.52182,-2.57969 4.53925,-2.57969 1.53789,0 2.63757,0.34727 3.29903,1.0418 0.66146,0.67799 0.99219,1.77768 0.99219,3.29902 v 17.16485 h 7.16855 v -17.33848 c -0.0331,-3.32382 -0.74414,-5.82083 -2.1332,-7.49101 -1.38905,-1.67018 -3.50573,-2.50528 -6.35,-2.50528 z m -137.30583,0.4961 h 7.19335 v 26.83867 h -7.19335 z m 42.68886,5.3082 c -1.42214,0 -2.57969,0.47956 -3.47265,1.43867 -0.87644,0.95911 -1.43868,2.33164 -1.68672,4.11758 h 9.97148 v -0.57051 c -0.0331,-1.5875 -0.46301,-2.8112 -1.28984,-3.67109 -0.82682,-0.87644 -2.00092,-1.31465 -3.52227,-1.31465 z m 64.15681,0 c 1.52135,0 2.69546,0.43821 3.52227,1.31465 0.82684,0.85989 1.25677,2.08359 1.28984,3.67109 v 0.57051 h -9.97148 c 0.24805,-1.78594 0.81028,-3.15847 1.68671,-4.11758 0.89297,-0.95911 2.05052,-1.43867 3.47266,-1.43867 z m -36.04121,5.8043 h 6.82129 c 3.42304,0.0496 5.13457,1.72806 5.13457,5.03535 0,1.47174 -0.4961,2.62929 -1.48828,3.47265 -0.97566,0.82683 -2.33991,1.24024 -4.09278,1.24024 h -6.3748 z"
       inkscape:label="full"
       inkscape:export-filename="logo_sprite.svg"
       inkscape:export-xdpi="96"
       inkscape:export-ydpi="96" />
  </g>
</svg>
