<?xml version="1.0" encoding="UTF-8" standalone="no"?>
<!-- Created with Inkscape (http://www.inkscape.org/) -->

<svg
   width="193.1076mm"
   height="53.26342mm"
   viewBox="0 0 193.1076 53.26342"
   version="1.1"
   id="svg1"
   xmlns="http://www.w3.org/2000/svg"
   xmlns:svg="http://www.w3.org/2000/svg">
  <defs
     id="defs1" />
  <g
     id="layer1"
     style="display:inline"
     transform="translate(-54.237818,-43.23013)">
    <path
       id="full"
       style="display:inline;fill:#ffffff;stroke-width:0.236773"
       d="m 51.946201,81.36829 v 47.26342 a 3,3 45 0 0 3,3 H 242.0538 a 3,3 135 0 0 3,-3 V 81.36829 a 3,3 45 0 0 -3,-3 H 54.946201 a 3,3 135 0 0 -3,3 z m 97.870519,0.81062 h 91.82385 v 45.64218 h -91.82385 z m -55.067446,3.150712 c 1.223695,0 2.199352,0.347268 2.926953,1.041798 0.727604,0.69453 1.091407,1.579234 1.091407,2.654101 0,1.091403 -0.372073,1.984377 -1.116211,2.678906 -0.727602,0.694529 -1.694991,1.041797 -2.902149,1.041797 -1.207156,0 -2.182813,-0.347268 -2.926953,-1.041797 -0.727601,-0.694529 -1.091406,-1.587503 -1.091406,-2.678906 0,-1.074867 0.355536,-1.959573 1.066602,-2.654101 0.727602,-0.69453 1.711528,-1.041798 2.951757,-1.041798 z m -31.948437,1.36426 V 101.32865 H 77.311579 V 86.693882 h 7.441406 V 122.80951 H 77.311579 V 107.33138 H 62.800837 v 15.47813 H 55.359431 V 94.135288 c 0,-4.109775 3.331631,-7.441406 7.441406,-7.441406 z m 91.714813,0 v 36.115628 h 14.03946 c 4.10103,-0.0331 7.2595,-0.94258 9.47539,-2.72852 2.21587,-1.78593 3.32383,-4.41523 3.32383,-7.88789 0,-2.03398 -0.53744,-3.75378 -1.61231,-5.15937 -1.05833,-1.4056 -2.51355,-2.33991 -4.36562,-2.80293 1.62057,-0.62839 2.88561,-1.61231 3.79511,-2.95176 0.90951,-1.355992 1.36426,-2.91869 1.36426,-4.688088 0,-3.241139 -1.13275,-5.696812 -3.39824,-7.366992 -2.26549,-1.686716 -5.58933,-2.530078 -9.97149,-2.530078 z m 7.44141,6.027539 h 5.20898 c 2.05053,0 3.54708,0.363804 4.48965,1.091406 0.95911,0.711068 1.43867,1.88516 1.43867,3.522266 0,2.926957 -1.87689,4.423517 -5.63066,4.489647 h -5.50664 z m -44.75954,2.75332 c 0.79374,0 1.53789,0.10749 2.23242,0.322461 l -0.0992,6.895708 c -0.97565,-0.13234 -1.83555,-0.19844 -2.57969,-0.19844 -2.71195,0 -4.48966,0.91777 -5.333,2.75332 v 17.56172 h -7.16856 V 95.970833 h 6.77168 l 0.19844,3.199805 c 1.43867,-2.463926 3.43132,-3.695899 5.97793,-3.695899 z m 16.66875,0 c 3.67107,0 6.55672,1.157558 8.65683,3.472657 2.11667,2.315102 3.175,5.597592 3.175,9.847462 v 2.92695 h -17.09043 c 0.23151,1.75287 0.92604,3.15847 2.0836,4.2168 1.17409,1.05833 2.6541,1.5875 4.44004,1.5875 2.76156,0 4.91959,-1.00046 6.47402,-3.00137 l 3.52227,3.94395 c -1.07487,1.52135 -2.53008,2.71198 -4.36563,3.57187 -1.83554,0.84336 -3.86953,1.26504 -6.10195,1.26504 -3.93567,0 -7.14375,-1.20717 -9.62422,-3.62148 -2.46393,-2.41433 -3.6959,-5.63067 -3.6959,-9.64903 v -0.69453 c 0,-2.69542 0.5209,-5.1015 1.5627,-7.21816 1.04177,-2.1332 2.51354,-3.77032 4.41523,-4.91133 1.91822,-1.157549 4.10105,-1.736329 6.54844,-1.736329 z m 64.15681,0 c -2.44739,0 -4.63022,0.578779 -6.54844,1.736329 -1.9017,1.141012 -3.37344,2.778128 -4.41524,4.91133 -1.04179,2.11666 -1.56269,4.52273 -1.56269,7.21816 v 0.69453 c 0,4.01836 1.23198,7.2347 3.6959,9.64903 2.48047,2.41431 5.68855,3.62148 9.62422,3.62148 2.23242,0 4.2664,-0.42168 6.10195,-1.26504 1.83554,-0.85989 3.29076,-2.05052 4.36562,-3.57187 l -3.52226,-3.94395 c -1.55444,2.00091 -3.71244,3.00137 -6.47403,3.00137 -1.78592,0 -3.26594,-0.52917 -4.44003,-1.5875 -1.15755,-1.05833 -1.85209,-2.46393 -2.0836,-4.2168 h 17.09043 v -2.92695 c 0,-4.24987 -1.05834,-7.53236 -3.175,-9.847464 -2.10013,-2.315101 -4.98575,-3.472657 -8.65683,-3.472655 z m 30.43535,0 c -3.2246,0 -5.79603,1.198899 -7.71426,3.59668 l -0.22324,-3.100586 h -6.74688 v 26.838675 h 7.16856 v -18.92598 c 1.00873,-1.71979 2.52182,-2.57969 4.53925,-2.57969 1.53789,0 2.63757,0.34727 3.29903,1.0418 0.66146,0.67799 0.99219,1.77768 0.99219,3.29902 v 17.16485 h 7.16855 v -17.33848 c -0.0331,-3.32382 -0.74414,-5.820832 -2.1332,-7.491016 -1.38905,-1.670179 -3.50573,-2.505274 -6.35,-2.505273 z M 91.152595,95.970833 h 7.193359 v 26.838677 h -7.193359 z m 42.688865,5.308207 c -1.42214,0 -2.57969,0.47956 -3.47265,1.43867 -0.87644,0.95911 -1.43868,2.33164 -1.68672,4.11758 h 9.97148 v -0.57051 c -0.0331,-1.5875 -0.46301,-2.8112 -1.28984,-3.67109 -0.82682,-0.87644 -2.00092,-1.31465 -3.52227,-1.31465 z m 64.15681,0 c 1.52135,0 2.69546,0.43821 3.52227,1.31465 0.82684,0.85989 1.25677,2.08359 1.28984,3.67109 v 0.57051 h -9.97148 c 0.24805,-1.78594 0.81028,-3.15847 1.68671,-4.11758 0.89297,-0.95911 2.05052,-1.43867 3.47266,-1.43867 z m -36.04121,5.8043 h 6.82129 c 3.42304,0.0496 5.13457,1.72806 5.13457,5.03535 0,1.47174 -0.4961,2.62929 -1.48828,3.47265 -0.97566,0.82683 -2.33991,1.24024 -4.09278,1.24024 h -6.3748 z"
       transform="translate(2.2916186,-35.13816)" />
  </g>
</svg>
