<?xml version="1.0" encoding="UTF-8" standalone="no"?>
<!-- Created with Inkscape (http://www.inkscape.org/) -->

<svg
   width="77.762695mm"
   height="53.263412mm"
   viewBox="0 0 77.762695 53.263412"
   version="1.1"
   id="svg1"
   xmlns="http://www.w3.org/2000/svg"
   xmlns:svg="http://www.w3.org/2000/svg">
  <defs
     id="defs1" />
  <g
     id="layer4"
     style="display:inline"
     transform="translate(-109.61865,-101.66648)">
    <path
       id="partial"
       style="display:inline;fill:#ffffff;stroke-width:0.236773"
       d="m 111.33739,81.368343 0,47.263417 a 3,3 45 0 0 3,3 h 71.7627 a 3,3 135 0 0 3,-3 V 81.368343 a 3,3 45 0 0 -3,-3 h -71.7627 a 3,3 135 0 0 -3,3 z m 38.47931,0.81062 h 35.87016 V 127.82114 H 149.8167 Z m -27.62468,4.51497 V 101.3287 h 14.51075 V 86.693933 h 7.4414 v 36.115627 h -7.4414 v -15.47813 h -14.51075 v 15.47813 h -7.4414 V 94.135339 c -5e-5,-0.977276 0.19241,-1.944994 0.56637,-2.847888 0.37408,-0.902724 0.9223,-1.722936 1.61334,-2.413806 0.69087,-0.691046 1.51108,-1.239259 2.41381,-1.613338 0.90289,-0.373966 1.87061,-0.56642 2.84788,-0.566374 z m 32.32361,0 v 36.115627 h 14.03946 c 1.02525,-0.008 1.99162,-0.0713 2.89904,-0.18914 0.90744,-0.11782 1.75597,-0.29042 2.54559,-0.5178 0.39479,-0.11368 0.77462,-0.24133 1.13998,-0.3824 0.36535,-0.14108 0.71623,-0.29559 1.05213,-0.46406 0.3359,-0.16846 0.65733,-0.35088 0.96376,-0.54673 0.30645,-0.19586 0.5979,-0.40515 0.87489,-0.62839 0.27698,-0.22324 0.5364,-0.45993 0.77876,-0.70951 0.24236,-0.2496 0.46767,-0.51212 0.67541,-0.78807 0.20774,-0.27595 0.39791,-0.56482 0.57103,-0.86713 0.17311,-0.30231 0.32917,-0.61805 0.46767,-0.94671 0.13849,-0.32867 0.25993,-0.67025 0.3638,-1.02526 0.10387,-0.35502 0.19017,-0.72347 0.25942,-1.10485 0.0692,-0.38137 0.12143,-0.77618 0.15606,-1.1839 0.0346,-0.40773 0.0517,-0.82838 0.0517,-1.26246 0,-0.50849 -0.0336,-0.99735 -0.10077,-1.46658 -0.0672,-0.46921 -0.16795,-0.9188 -0.30231,-1.34875 -0.13436,-0.42995 -0.30231,-0.84026 -0.50385,-1.23093 -0.20153,-0.39068 -0.43666,-0.76172 -0.70538,-1.11311 -0.26458,-0.3514 -0.55397,-0.67335 -0.86816,-0.96584 -0.3142,-0.29248 -0.65319,-0.55553 -1.017,-0.78909 -0.3638,-0.23358 -0.75241,-0.4377 -1.16582,-0.61237 -0.41341,-0.17467 -0.85164,-0.31988 -1.31464,-0.43563 0.40513,-0.1571 0.78806,-0.33642 1.14876,-0.53795 0.3607,-0.20154 0.69919,-0.4253 1.01544,-0.67128 0.31626,-0.24598 0.6103,-0.51418 0.88212,-0.8046 0.27182,-0.29042 0.52142,-0.60307 0.74879,-0.93793 0.22738,-0.339 0.42633,-0.69091 0.59687,-1.05575 0.17053,-0.364836 0.31264,-0.742592 0.42633,-1.133264 0.11368,-0.390674 0.19895,-0.794269 0.25579,-1.210779 0.0568,-0.416512 0.0853,-0.845944 0.0853,-1.288294 0,-0.40514 -0.0178,-0.798143 -0.0532,-1.178739 -0.0354,-0.380596 -0.0884,-0.748792 -0.15916,-1.104842 -0.0708,-0.35605 -0.15942,-0.699958 -0.26562,-1.031462 -0.10619,-0.331503 -0.22996,-0.650606 -0.37155,-0.957564 -0.14159,-0.306958 -0.30102,-0.601772 -0.47801,-0.884184 -0.17699,-0.282411 -0.37155,-0.552421 -0.58394,-0.810286 -0.21239,-0.257866 -0.44261,-0.503587 -0.6904,-0.736906 -0.24779,-0.233319 -0.51315,-0.454236 -0.79633,-0.663009 -0.28319,-0.210839 -0.58291,-0.408245 -0.89917,-0.592728 -0.31626,-0.184485 -0.64906,-0.356051 -0.99839,-0.514181 -0.34933,-0.15813 -0.7152,-0.302824 -1.09761,-0.434599 -0.3824,-0.131775 -0.78135,-0.25063 -1.19682,-0.35605 -0.83096,-0.21084 -1.72806,-0.36897 -2.69131,-0.47439 -0.96325,-0.10542 -1.99265,-0.15813 -3.08819,-0.15813 z m 7.44141,6.027539 h 5.20898 c 0.51264,0 0.99065,0.02274 1.43402,0.06821 0.44339,0.04547 0.85215,0.113688 1.22629,0.204639 0.37413,0.09095 0.71365,0.204639 1.01854,0.341064 0.30489,0.136426 0.57516,0.295591 0.8108,0.47749 0.23978,0.177767 0.44959,0.384473 0.62942,0.620118 0.17983,0.235643 0.3297,0.500228 0.44959,0.79375 0.11989,0.293521 0.2098,0.615984 0.26975,0.967382 0.0599,0.3514 0.0899,0.73174 0.0899,1.141016 0,0.365869 -0.0292,0.709259 -0.0878,1.030428 -0.0587,0.321169 -0.14676,0.620117 -0.26406,0.896586 -0.11731,0.276469 -0.26381,0.530455 -0.43977,0.762235 -0.17596,0.23176 -0.38137,0.44131 -0.61598,0.62838 -0.23461,0.18707 -0.49843,0.35166 -0.79168,0.49403 -0.29327,0.14237 -0.61599,0.26251 -0.9679,0.36018 -0.35192,0.0977 -0.73304,0.17286 -1.1436,0.22583 -0.41057,0.053 -0.8506,0.0837 -1.31982,0.092 h -5.50664 z m 0,14.361918 h 6.82129 c 0.42788,0.006 0.82915,0.038 1.20354,0.0951 0.3744,0.0571 0.72192,0.13953 1.04283,0.24753 0.32091,0.108 0.61521,0.24159 0.88264,0.40049 0.26742,0.15891 0.50798,0.34313 0.72192,0.55294 0.21394,0.20981 0.40126,0.44519 0.56172,0.7059 0.16045,0.26071 0.29404,0.54674 0.40101,0.85835 0.10697,0.31161 0.18733,0.64879 0.24081,1.0113 0.0535,0.36251 0.0801,0.75035 0.0801,1.16376 0,0.36793 -0.031,0.71623 -0.093,1.0449 -0.062,0.32865 -0.15503,0.63768 -0.27905,0.92707 -0.12403,0.28939 -0.27905,0.55914 -0.46509,0.80925 -0.18603,0.25012 -0.40308,0.48059 -0.65112,0.69143 -0.24392,0.20671 -0.51212,0.38758 -0.8046,0.54261 -0.29249,0.15503 -0.60927,0.28422 -0.95033,0.38757 -0.34107,0.10335 -0.70642,0.18087 -1.09606,0.23254 -0.38964,0.0517 -0.80357,0.0775 -1.24179,0.0775 h -6.3748 z"
       transform="translate(-1.71874,23.298127)" />
  </g>
</svg>
